<svg width="33" height="33" viewBox="0 0 33 33" fill="none" xmlns="http://www.w3.org/2000/svg">
<rect x="0.5" y="0.301392" width="32" height="32" rx="4" fill="white" fill-opacity="0.05"/>
<path d="M27.5 16.3014C27.5 10.7814 23.02 6.30139 17.5 6.30139C11.98 6.30139 7.5 10.7814 7.5 16.3014C7.5 21.1414 10.94 25.1714 15.5 26.1014V19.3014H13.5V16.3014H15.5V13.8014C15.5 11.8714 17.07 10.3014 19 10.3014H21.5V13.3014H19.5C18.95 13.3014 18.5 13.7514 18.5 14.3014V16.3014H21.5V19.3014H18.5V26.2514C23.55 25.7514 27.5 21.4914 27.5 16.3014Z" fill="white"/>
<rect x="1" y="0.801392" width="31" height="31" rx="3.5" stroke="white" stroke-opacity="0.05"/>
</svg>
