<svg width="80" height="81" viewBox="0 0 80 81" fill="none" xmlns="http://www.w3.org/2000/svg">
<rect y="0.5" width="80" height="80" rx="8" fill="url(#paint0_linear_24_2366)"/>
<path d="M10.16 45.692C9.02933 45.692 8.05867 45.452 7.248 44.972C6.43733 44.4813 5.81333 43.804 5.376 42.94C4.93867 42.0653 4.72 41.0573 4.72 39.916C4.72 38.7747 4.93867 37.7667 5.376 36.892C5.81333 36.0173 6.43733 35.3347 7.248 34.844C8.05867 34.3533 9.02933 34.108 10.16 34.108C11.504 34.108 12.6027 34.444 13.456 35.116C14.32 35.7773 14.8587 36.7107 15.072 37.916H12.816C12.6773 37.308 12.3787 36.8333 11.92 36.492C11.472 36.14 10.8747 35.964 10.128 35.964C9.09333 35.964 8.28267 36.316 7.696 37.02C7.10933 37.724 6.816 38.6893 6.816 39.916C6.816 41.1427 7.10933 42.108 7.696 42.812C8.28267 43.5053 9.09333 43.852 10.128 43.852C10.8747 43.852 11.472 43.692 11.92 43.372C12.3787 43.0413 12.6773 42.588 12.816 42.012H15.072C14.8587 43.164 14.32 44.0653 13.456 44.716C12.6027 45.3667 11.504 45.692 10.16 45.692ZM19.5729 45.692C18.8902 45.692 18.3302 45.5853 17.8929 45.372C17.4555 45.148 17.1302 44.8547 16.9169 44.492C16.7035 44.1293 16.5969 43.7293 16.5969 43.292C16.5969 42.556 16.8849 41.9587 17.4609 41.5C18.0369 41.0413 18.9009 40.812 20.0529 40.812H22.0689V40.62C22.0689 40.076 21.9142 39.676 21.6049 39.42C21.2955 39.164 20.9115 39.036 20.4529 39.036C20.0369 39.036 19.6742 39.1373 19.3649 39.34C19.0555 39.532 18.8635 39.82 18.7889 40.204H16.7889C16.8422 39.628 17.0342 39.1267 17.3649 38.7C17.7062 38.2733 18.1435 37.948 18.6769 37.724C19.2102 37.4893 19.8075 37.372 20.4689 37.372C21.5995 37.372 22.4902 37.6547 23.1409 38.22C23.7915 38.7853 24.1169 39.5853 24.1169 40.62V45.5H22.3729L22.1809 44.22C21.9462 44.6467 21.6155 44.9987 21.1889 45.276C20.7729 45.5533 20.2342 45.692 19.5729 45.692ZM20.0369 44.092C20.6235 44.092 21.0769 43.9 21.3969 43.516C21.7275 43.132 21.9355 42.6573 22.0209 42.092H20.2769C19.7329 42.092 19.3435 42.1933 19.1089 42.396C18.8742 42.588 18.7569 42.828 18.7569 43.116C18.7569 43.4253 18.8742 43.6653 19.1089 43.836C19.3435 44.0067 19.6529 44.092 20.0369 44.092ZM29.4979 45.5C28.6659 45.5 27.9992 45.2973 27.4979 44.892C26.9965 44.4867 26.7459 43.7667 26.7459 42.732V39.276H25.3859V37.564H26.7459L26.9859 35.436H28.7939V37.564H30.9379V39.276H28.7939V42.748C28.7939 43.132 28.8739 43.3987 29.0339 43.548C29.2045 43.6867 29.4925 43.756 29.8979 43.756H30.8899V45.5H29.4979ZM36.3811 45.692C35.5705 45.692 34.8558 45.516 34.2371 45.164C33.6185 44.812 33.1278 44.3213 32.7651 43.692C32.4131 43.0627 32.2371 42.3427 32.2371 41.532C32.2371 40.7213 32.4131 40.0013 32.7651 39.372C33.1278 38.7427 33.6185 38.252 34.2371 37.9C34.8558 37.548 35.5705 37.372 36.3811 37.372C37.3945 37.372 38.2478 37.6387 38.9411 38.172C39.6345 38.6947 40.0771 39.42 40.2691 40.348H38.1091C38.0025 39.964 37.7891 39.6653 37.4691 39.452C37.1598 39.228 36.7918 39.116 36.3651 39.116C35.7998 39.116 35.3198 39.3293 34.9251 39.756C34.5305 40.1827 34.3331 40.7747 34.3331 41.532C34.3331 42.2893 34.5305 42.8813 34.9251 43.308C35.3198 43.7347 35.7998 43.948 36.3651 43.948C36.7918 43.948 37.1598 43.8413 37.4691 43.628C37.7891 43.4147 38.0025 43.1107 38.1091 42.716H40.2691C40.0771 43.612 39.6345 44.332 38.9411 44.876C38.2478 45.42 37.3945 45.692 36.3811 45.692ZM42.0869 45.5V33.98H44.1349V38.78C44.4015 38.3427 44.7589 38.0013 45.2069 37.756C45.6655 37.5 46.1882 37.372 46.7749 37.372C47.7562 37.372 48.5135 37.6813 49.0469 38.3C49.5909 38.9187 49.8629 39.8253 49.8629 41.02V45.5H47.8309V41.212C47.8309 40.5293 47.6922 40.0067 47.4149 39.644C47.1482 39.2813 46.7215 39.1 46.1349 39.1C45.5589 39.1 45.0789 39.3027 44.6949 39.708C44.3215 40.1133 44.1349 40.6787 44.1349 41.404V45.5H42.0869Z" fill="#1B61E0"/>
<path d="M56.1893 45.692C55.3679 45.692 54.6266 45.532 53.9653 45.212C53.3039 44.8813 52.7759 44.3853 52.3813 43.724C51.9973 43.0627 51.8053 42.2253 51.8053 41.212V34.3H53.8533V41.228C53.8533 42.1027 54.0613 42.7533 54.4773 43.18C54.9039 43.6067 55.4906 43.82 56.2373 43.82C56.9733 43.82 57.5546 43.6067 57.9813 43.18C58.4079 42.7533 58.6213 42.1027 58.6213 41.228V34.3H60.6693V41.212C60.6693 42.2253 60.4666 43.0627 60.0613 43.724C59.6559 44.3853 59.1119 44.8813 58.4293 45.212C57.7573 45.532 57.0106 45.692 56.1893 45.692ZM62.7119 49.02V37.564H64.5359L64.7599 38.7C65.0159 38.348 65.3519 38.0387 65.7679 37.772C66.1945 37.5053 66.7439 37.372 67.4159 37.372C68.1625 37.372 68.8292 37.5533 69.4159 37.916C70.0025 38.2787 70.4665 38.7747 70.8079 39.404C71.1492 40.0333 71.3199 40.748 71.3199 41.548C71.3199 42.348 71.1492 43.0627 70.8079 43.692C70.4665 44.3107 70.0025 44.8013 69.4159 45.164C68.8292 45.516 68.1625 45.692 67.4159 45.692C66.8185 45.692 66.2959 45.58 65.8479 45.356C65.3999 45.132 65.0372 44.8173 64.7599 44.412V49.02H62.7119ZM66.9839 43.9C67.6345 43.9 68.1732 43.6813 68.5999 43.244C69.0265 42.8067 69.2399 42.2413 69.2399 41.548C69.2399 40.8547 69.0265 40.284 68.5999 39.836C68.1732 39.388 67.6345 39.164 66.9839 39.164C66.3225 39.164 65.7785 39.388 65.3519 39.836C64.9359 40.2733 64.7279 40.8387 64.7279 41.532C64.7279 42.2253 64.9359 42.796 65.3519 43.244C65.7785 43.6813 66.3225 43.9 66.9839 43.9Z" fill="#061124"/>
<defs>
<linearGradient id="paint0_linear_24_2366" x1="0" y1="0.5" x2="76" y2="84" gradientUnits="userSpaceOnUse">
<stop stop-color="#F1F7FF"/>
<stop offset="1" stop-color="#ECEBFF"/>
<stop offset="1" stop-color="#E2EBFD"/>
</linearGradient>
</defs>
</svg>
