<svg width="80" height="80" viewBox="0 0 80 80" fill="none" xmlns="http://www.w3.org/2000/svg">
<rect width="80" height="80" rx="8" fill="url(#paint0_linear_24_871)"/>
<path d="M40.9032 40H42.5487C51.6342 40 59 29.2552 59 16H24.4519C15.3669 16 8 26.7448 8 40C8 53.2553 15.3669 64 24.4519 64C33.5374 64 40.9032 53.2553 40.9032 40Z" fill="url(#paint1_linear_24_871)"/>
<path d="M25.1319 40H23.4717C23.4717 48.3763 20.4995 55.7491 16 60.042C18.6196 62.5442 21.758 64 25.1319 64C34.3016 64 41.7356 53.2553 41.7356 40H43.3963C52.566 40 60 29.2552 60 16H41.7356C41.7356 29.2552 34.3016 40 25.1319 40Z" fill="url(#paint2_linear_24_871)"/>
<path d="M73 64C73 50.7447 65.5379 40 56.3335 40H43.0006H41.3335H24.667C18.4999 40 13.1184 35.1715 10.2357 28C8.81701 31.5314 8 35.6318 8 40C8 53.2553 15.4632 64 24.667 64H73Z" fill="url(#paint3_linear_24_871)"/>
<defs>
<linearGradient id="paint0_linear_24_871" x1="0" y1="0" x2="76" y2="83.5" gradientUnits="userSpaceOnUse">
<stop stop-color="#EFF3FC"/>
<stop offset="1" stop-color="#CFD4DE"/>
</linearGradient>
<linearGradient id="paint1_linear_24_871" x1="33.5006" y1="16" x2="33.5006" y2="64" gradientUnits="userSpaceOnUse">
<stop stop-color="#ACC5F4"/>
<stop offset="0.660991" stop-color="#0652DD"/>
<stop offset="1" stop-color="#0176C3"/>
</linearGradient>
<linearGradient id="paint2_linear_24_871" x1="73.8399" y1="40" x2="24.1376" y2="40" gradientUnits="userSpaceOnUse">
<stop stop-color="#2195E9"/>
<stop offset="0.660991" stop-color="#0176C3"/>
<stop offset="1" stop-color="#0544B8"/>
</linearGradient>
<linearGradient id="paint3_linear_24_871" x1="92.1868" y1="46" x2="16.7333" y2="46" gradientUnits="userSpaceOnUse">
<stop stop-color="#0652DD"/>
<stop offset="0.0634212" stop-color="#0E58DE"/>
<stop offset="1" stop-color="#8BABE8"/>
</linearGradient>
</defs>
</svg>
