<svg width="72" height="15" viewBox="0 0 72 15" fill="none" xmlns="http://www.w3.org/2000/svg">
<g clip-path="url(#clip0_1_1468)">
<path d="M4.50333 10.875H4.99705C5.89471 10.875 6.563 10.495 7.00182 9.73496C7.44071 8.96496 7.66009 7.66996 7.66009 5.84996C7.66009 4.02997 7.4357 2.76997 6.98686 2.06996C6.54803 1.35997 5.91965 1.00496 5.10177 1.00496H4.50333V10.875ZM5.29627 11.115H0.493774V10.875H1.45128V1.00496H0.493774V0.749964H5.14666C7.17136 0.749964 8.64755 1.20496 9.5751 2.11496C10.5127 3.01496 10.9815 4.24496 10.9815 5.80496C10.9815 7.33496 10.5525 8.57996 9.69481 9.53996C9.25598 10.04 8.66252 10.43 7.91447 10.71C7.16642 10.98 6.29365 11.115 5.29627 11.115ZM12.6678 4.45497H11.6056V4.21496H12.5033C13.5905 4.21496 14.5878 4.11997 15.4955 3.92996V10.875H16.4231V11.115H11.7403V10.875H12.6678V4.45497ZM14.0742 3.29996C13.6852 3.29996 13.3511 3.16496 13.0718 2.89496C12.8025 2.61496 12.6678 2.27997 12.6678 1.88996C12.6678 1.48996 12.8025 1.15496 13.0718 0.884964C13.3511 0.604966 13.6902 0.464966 14.0891 0.464966C14.4881 0.464966 14.8223 0.604966 15.0916 0.884964C15.3608 1.15496 15.4955 1.48996 15.4955 1.88996C15.4955 2.27997 15.3559 2.61496 15.0766 2.89496C14.8073 3.16496 14.4732 3.29996 14.0742 3.29996ZM22.9716 4.73997C22.8519 4.61997 22.6374 4.50997 22.3283 4.40997C22.0291 4.29997 21.66 4.24496 21.2212 4.24496C20.7822 4.24496 20.4182 4.34497 20.129 4.54497C19.8397 4.73497 19.6952 4.98997 19.6952 5.30997C19.6952 5.61997 19.8397 5.89496 20.129 6.13497C20.4182 6.36496 20.7673 6.57496 21.1763 6.76496C21.5852 6.94496 21.9941 7.14496 22.4031 7.36496C22.822 7.57496 23.176 7.84496 23.4653 8.17496C23.7545 8.50496 23.8992 8.87996 23.8992 9.29996C23.8992 9.94003 23.5701 10.45 22.9118 10.83C22.2634 11.21 21.286 11.4 19.9794 11.4C19.3909 11.4 18.7924 11.295 18.1841 11.085C17.8749 10.975 17.6205 10.805 17.4211 10.575C17.2315 10.335 17.1368 10.04 17.1368 9.68996C17.1368 9.33996 17.2514 9.03996 17.4809 8.78996C17.7103 8.52996 18.0045 8.39996 18.3636 8.39996C18.7227 8.39996 19.0119 8.50496 19.2314 8.71496C19.4507 8.91496 19.5605 9.17496 19.5605 9.49496C19.5605 9.81496 19.4657 10.075 19.2763 10.275C19.0967 10.465 18.8723 10.56 18.603 10.56C18.3436 10.56 18.1192 10.465 17.9297 10.275C17.9098 10.255 17.8948 10.24 17.8848 10.23C17.8749 10.21 17.8649 10.195 17.8549 10.185C17.845 10.175 17.8349 10.165 17.825 10.155C17.7851 10.135 17.7502 10.125 17.7203 10.125C17.6404 10.125 17.6006 10.17 17.6006 10.26C17.6006 10.35 17.6754 10.46 17.825 10.59C17.9845 10.72 18.2439 10.84 18.603 10.95C18.9621 11.06 19.366 11.115 19.8148 11.115C20.2735 11.115 20.6625 11.04 20.9818 10.89C21.3109 10.73 21.4755 10.505 21.4755 10.215C21.4755 9.91496 21.3309 9.64003 21.0416 9.38996C20.7523 9.12996 20.3983 8.89496 19.9794 8.68496C19.5704 8.46496 19.1565 8.23996 18.7376 8.00996C18.3187 7.77996 17.9646 7.50496 17.6754 7.18496C17.3861 6.85496 17.2415 6.49996 17.2415 6.11996C17.2415 5.48997 17.5307 4.96996 18.1093 4.55996C18.6977 4.14997 19.6103 3.94497 20.8472 3.94497C21.7647 3.94497 22.453 4.09996 22.9118 4.40997C23.3705 4.70997 23.5999 5.10997 23.5999 5.60997C23.5999 5.97997 23.4852 6.29496 23.2559 6.55496C23.0264 6.80496 22.7323 6.92996 22.3732 6.92996C22.024 6.92996 21.7398 6.82496 21.5204 6.61496C21.301 6.40496 21.1913 6.14497 21.1913 5.83497C21.1913 5.51497 21.281 5.25496 21.4605 5.05497C21.6401 4.85497 21.8645 4.75497 22.1338 4.75497C22.413 4.75497 22.6125 4.82996 22.7323 4.97996C22.8619 5.11996 22.9566 5.18996 23.0165 5.18996C23.1063 5.18996 23.1512 5.14497 23.1512 5.05497C23.1512 4.96497 23.0913 4.85997 22.9716 4.73997ZM29.2183 10.98C29.707 10.98 30.1309 10.785 30.49 10.395C30.8491 10.005 31.0834 9.52003 31.1932 8.93996L31.2231 8.78996H31.4924C31.4026 9.55996 31.1034 10.19 30.5947 10.68C30.0861 11.16 29.4577 11.4 28.7096 11.4C27.4928 11.4 26.5352 11.075 25.8371 10.425C25.1389 9.77503 24.7898 8.85996 24.7898 7.67996C24.7898 6.48996 25.1439 5.56996 25.8521 4.91997C26.5702 4.25997 27.5327 3.92996 28.7395 3.92996C29.5873 3.92996 30.2357 4.13996 30.6845 4.55996C31.1432 4.97996 31.3727 5.41996 31.3727 5.87996C31.3727 6.33996 31.253 6.69496 31.0136 6.94496C30.7842 7.19496 30.49 7.31996 30.1309 7.31996C29.7719 7.31996 29.4776 7.20996 29.2483 6.98996C29.0287 6.76996 28.9191 6.50496 28.9191 6.19496C28.9191 5.87497 29.0088 5.61496 29.1884 5.41497C29.3779 5.20496 29.6223 5.09997 29.9215 5.09997C30.3404 5.09997 30.6146 5.29996 30.7444 5.69996C30.7842 5.82997 30.8391 5.89496 30.9089 5.89496C30.9987 5.89496 31.0436 5.84497 31.0436 5.74497C31.0436 5.71496 31.0335 5.65996 31.0136 5.57997C30.7343 4.75996 30.1409 4.34996 29.2333 4.34996C28.9639 4.34996 28.7345 4.42497 28.5451 4.57497C28.3555 4.71496 28.2109 4.87996 28.1112 5.06997C28.0214 5.25997 27.9516 5.51996 27.9017 5.84996C27.8419 6.25996 27.8119 6.76996 27.8119 7.37996C27.8119 7.98996 27.817 8.44996 27.8269 8.75996C27.8469 9.06996 27.8818 9.37996 27.9317 9.68996C27.9815 10 28.0563 10.24 28.1561 10.41C28.3754 10.79 28.7295 10.98 29.2183 10.98ZM35.7442 5.14497H35.8189C35.9784 4.78496 36.2029 4.49497 36.4922 4.27496C36.7814 4.04497 37.1304 3.92996 37.5395 3.92996C37.9584 3.92996 38.3124 4.06996 38.6017 4.34996C38.9009 4.61996 39.0505 4.94997 39.0505 5.33997C39.0505 5.72996 38.9358 6.05497 38.7064 6.31496C38.477 6.57496 38.1828 6.70496 37.8237 6.70496C37.4646 6.70496 37.1704 6.59996 36.941 6.38996C36.7215 6.17997 36.6119 5.91997 36.6119 5.60997C36.6119 5.28997 36.7016 5.02996 36.8812 4.82996C37.0706 4.61996 37.3051 4.51496 37.5844 4.51496C37.8635 4.51496 38.088 4.61497 38.2576 4.81497C38.3373 4.96497 38.4171 5.03996 38.4969 5.03996C38.5867 5.03996 38.6316 4.99496 38.6316 4.90496C38.6316 4.84496 38.6017 4.76997 38.5418 4.67997C38.3025 4.35997 37.9633 4.19996 37.5245 4.19996C36.2977 4.19996 35.6843 5.42997 35.6843 7.88996V10.875H36.8064V11.115H31.9889V10.875H32.9165V4.45497H31.8543V4.21496H32.7519C33.839 4.21496 34.8365 4.11997 35.7442 3.92996V5.14497ZM40.1062 4.45497H39.0439V4.21496H39.9416C41.0288 4.21496 42.0262 4.11997 42.9338 3.92996V10.875H43.8614V11.115H39.1786V10.875H40.1062V4.45497ZM41.5125 3.29996C41.1236 3.29996 40.7894 3.16496 40.5102 2.89496C40.2408 2.61496 40.1062 2.27997 40.1062 1.88996C40.1062 1.48996 40.2408 1.15496 40.5102 0.884964C40.7894 0.604966 41.1285 0.464966 41.5275 0.464966C41.9264 0.464966 42.2606 0.604966 42.5299 0.884964C42.7992 1.15496 42.9338 1.48996 42.9338 1.88996C42.9338 2.27997 42.7941 2.61496 42.5149 2.89496C42.2456 3.16496 41.9114 3.29996 41.5125 3.29996ZM47.9862 10.32V14.085H49.1083V14.325H44.231V14.085H45.1586V4.45497H44.0963V4.21496H44.994C46.0812 4.21496 47.0785 4.11997 47.9862 3.92996V5.24996H48.061C48.2506 4.76996 48.5098 4.42996 48.839 4.22997C49.1781 4.02997 49.6169 3.92996 50.1555 3.92996C51.0931 3.92996 51.7763 4.27496 52.2052 4.96497C52.6441 5.65497 52.8635 6.54496 52.8635 7.63496C52.8635 8.72496 52.6141 9.62503 52.1155 10.335C51.6267 11.035 50.9136 11.385 49.976 11.385C49.0484 11.385 48.4101 11.03 48.061 10.32H47.9862ZM47.9264 7.64996V8.05496C47.9264 8.93496 48.0411 9.61996 48.2705 10.11C48.4998 10.59 48.7641 10.83 49.0634 10.83C49.5821 10.83 49.8414 9.76996 49.8414 7.64996C49.8414 6.58996 49.7865 5.81997 49.6768 5.33997C49.577 4.84996 49.3726 4.60497 49.0634 4.60497C48.7043 4.60497 48.425 4.91996 48.2256 5.54996C48.0261 6.17997 47.9264 6.87996 47.9264 7.64996Z" fill="#061124"/>
<path d="M57.6336 10.545C58.0125 10.545 58.2569 10.045 58.3667 9.04501L58.636 9.07501C58.5462 9.81495 58.3367 10.39 58.0076 10.8C57.6785 11.2 57.1897 11.4 56.5414 11.4C55.2049 11.4 54.5366 10.6699 54.5366 9.21001V4.45501H53.7587V4.21501H53.8634C54.3322 4.21501 54.9156 4.03501 55.6138 3.67501C55.9629 3.49501 56.282 3.22501 56.5714 2.86501C56.8606 2.50501 57.06 2.09501 57.1698 1.63501H57.3643V4.21501H58.7557V4.45501H57.3643V9.93001C57.3643 10.3399 57.4541 10.545 57.6336 10.545ZM66.2237 10.38C65.4956 11.0599 64.5433 11.4 63.3663 11.4C62.1891 11.4 61.2367 11.0599 60.5086 10.38C59.7804 9.69001 59.4164 8.78501 59.4164 7.66501C59.4164 6.54501 59.7804 5.645 60.5086 4.96501C61.2367 4.27501 62.1891 3.93001 63.3663 3.93001C64.5433 3.93001 65.4956 4.27501 66.2237 4.96501C66.9519 5.645 67.3156 6.54501 67.3156 7.66501C67.3156 8.78501 66.9519 9.69001 66.2237 10.38ZM64.0844 10.38C64.224 9.87001 64.2935 8.96501 64.2935 7.66501C64.2935 6.36501 64.224 5.465 64.0844 4.96501C63.9548 4.45501 63.715 4.20001 63.3663 4.20001C63.0169 4.20001 62.7728 4.45501 62.6331 4.96501C62.5033 5.465 62.4385 6.36501 62.4385 7.66501C62.4385 8.96501 62.5033 9.87001 62.6331 10.38C62.7728 10.8799 63.0169 11.13 63.3663 11.13C63.715 11.13 63.9548 10.8799 64.0844 10.38Z" fill="#061124"/>
<path d="M69.9621 11.3999C69.5733 11.3999 69.239 11.2649 68.9597 10.9949C68.6905 10.7149 68.5559 10.3799 68.5559 9.98994C68.5559 9.58994 68.6905 9.25494 68.9597 8.98494C69.239 8.70494 69.5783 8.56494 69.9771 8.56494C70.3759 8.56494 70.7103 8.70494 70.9795 8.98494C71.2487 9.25494 71.3833 9.58994 71.3833 9.98994C71.3833 10.3799 71.2437 10.7149 70.9645 10.9949C70.6952 11.2649 70.3609 11.3999 69.9621 11.3999Z" fill="#FF6C00"/>
</g>
<defs>
<clipPath id="clip0_1_1468">
<rect width="72" height="15" fill="white"/>
</clipPath>
</defs>
</svg>
