<svg width="80" height="81" viewBox="0 0 80 81" fill="none" xmlns="http://www.w3.org/2000/svg">
<rect y="0.5" width="80" height="80" rx="8" fill="url(#paint0_linear_24_1419)"/>
<path d="M3.2255 44.576C3.0355 44.576 2.88983 44.5253 2.7885 44.424C2.68717 44.3163 2.6365 44.1643 2.6365 43.968V40.377C2.6365 40.1807 2.68717 40.0318 2.7885 39.9305C2.88983 39.8292 3.03233 39.7785 3.216 39.7785C3.39967 39.7785 3.54217 39.8292 3.6435 39.9305C3.74483 40.0318 3.7955 40.1807 3.7955 40.377V41.0705L3.691 40.7855C3.81767 40.4688 4.014 40.2187 4.28 40.035C4.546 39.8513 4.86267 39.7595 5.23 39.7595C5.60367 39.7595 5.91083 39.8482 6.1515 40.0255C6.39217 40.2028 6.56 40.4752 6.655 40.8425H6.522C6.64867 40.5068 6.85767 40.244 7.149 40.054C7.44033 39.8577 7.776 39.7595 8.156 39.7595C8.51067 39.7595 8.802 39.8292 9.03 39.9685C9.26433 40.1078 9.4385 40.32 9.5525 40.605C9.6665 40.8837 9.7235 41.2383 9.7235 41.669V43.968C9.7235 44.1643 9.66967 44.3163 9.562 44.424C9.46067 44.5253 9.315 44.576 9.125 44.576C8.935 44.576 8.78933 44.5253 8.688 44.424C8.58667 44.3163 8.536 44.1643 8.536 43.968V41.7165C8.536 41.3618 8.47583 41.1022 8.3555 40.9375C8.2415 40.7728 8.04517 40.6905 7.7665 40.6905C7.45617 40.6905 7.21233 40.8013 7.035 41.023C6.85767 41.2383 6.769 41.5392 6.769 41.9255V43.968C6.769 44.1643 6.71833 44.3163 6.617 44.424C6.51567 44.5253 6.37 44.576 6.18 44.576C5.99 44.576 5.84117 44.5253 5.7335 44.424C5.63217 44.3163 5.5815 44.1643 5.5815 43.968V41.7165C5.5815 41.3618 5.52133 41.1022 5.401 40.9375C5.287 40.7728 5.09383 40.6905 4.8215 40.6905C4.51117 40.6905 4.26733 40.8013 4.09 41.023C3.91267 41.2383 3.824 41.5392 3.824 41.9255V43.968C3.824 44.3733 3.6245 44.576 3.2255 44.576ZM12.4781 44.595C12.1424 44.595 11.8416 44.5317 11.5756 44.405C11.3159 44.272 11.1101 44.0947 10.9581 43.873C10.8124 43.6513 10.7396 43.4012 10.7396 43.1225C10.7396 42.7805 10.8282 42.5113 11.0056 42.315C11.1829 42.1123 11.4711 41.9667 11.8701 41.878C12.2691 41.7893 12.8042 41.745 13.4756 41.745H13.9506V42.429H13.4851C13.0924 42.429 12.7789 42.448 12.5446 42.486C12.3102 42.524 12.1424 42.5905 12.0411 42.6855C11.9461 42.7742 11.8986 42.9008 11.8986 43.0655C11.8986 43.2745 11.9714 43.4455 12.1171 43.5785C12.2627 43.7115 12.4654 43.778 12.7251 43.778C12.9341 43.778 13.1177 43.7305 13.2761 43.6355C13.4407 43.5342 13.5706 43.398 13.6656 43.227C13.7606 43.056 13.8081 42.8597 13.8081 42.638V41.5455C13.8081 41.2288 13.7384 41.0008 13.5991 40.8615C13.4597 40.7222 13.2254 40.6525 12.8961 40.6525C12.7124 40.6525 12.5129 40.6747 12.2976 40.719C12.0886 40.7633 11.8669 40.8393 11.6326 40.947C11.5122 41.004 11.4046 41.0198 11.3096 40.9945C11.2209 40.9692 11.1512 40.9185 11.1006 40.8425C11.0499 40.7602 11.0246 40.6715 11.0246 40.5765C11.0246 40.4815 11.0499 40.3897 11.1006 40.301C11.1512 40.206 11.2367 40.1363 11.3571 40.092C11.6484 39.9717 11.9271 39.8862 12.1931 39.8355C12.4654 39.7848 12.7124 39.7595 12.9341 39.7595C13.3901 39.7595 13.7637 39.8292 14.0551 39.9685C14.3527 40.1078 14.5744 40.32 14.7201 40.605C14.8657 40.8837 14.9386 41.2447 14.9386 41.688V43.968C14.9386 44.1643 14.8911 44.3163 14.7961 44.424C14.7011 44.5253 14.5649 44.576 14.3876 44.576C14.2102 44.576 14.0709 44.5253 13.9696 44.424C13.8746 44.3163 13.8271 44.1643 13.8271 43.968V43.512H13.9031C13.8587 43.7337 13.7701 43.9268 13.6371 44.0915C13.5104 44.2498 13.3489 44.3733 13.1526 44.462C12.9562 44.5507 12.7314 44.595 12.4781 44.595ZM18.3099 46.305C17.9679 46.305 17.6354 46.2733 17.3124 46.21C16.9957 46.1467 16.7075 46.0485 16.4479 45.9155C16.3275 45.8522 16.2452 45.7762 16.2009 45.6875C16.1629 45.5988 16.1502 45.507 16.1629 45.412C16.1819 45.3233 16.2199 45.2442 16.2769 45.1745C16.3402 45.1048 16.4162 45.0573 16.5049 45.032C16.5935 45.0067 16.6854 45.0193 16.7804 45.07C17.059 45.2093 17.3219 45.298 17.5689 45.336C17.8222 45.3803 18.0375 45.4025 18.2149 45.4025C18.6392 45.4025 18.9559 45.298 19.1649 45.089C19.3802 44.8863 19.4879 44.5823 19.4879 44.177V43.322H19.5734C19.4784 43.645 19.2789 43.9047 18.9749 44.101C18.6772 44.291 18.3384 44.386 17.9584 44.386C17.5404 44.386 17.1762 44.291 16.8659 44.101C16.5555 43.9047 16.3149 43.6323 16.1439 43.284C15.9729 42.9357 15.8874 42.5303 15.8874 42.068C15.8874 41.7197 15.9349 41.4062 16.0299 41.1275C16.1312 40.8425 16.2705 40.5987 16.4479 40.396C16.6315 40.1933 16.85 40.0382 17.1034 39.9305C17.363 39.8165 17.648 39.7595 17.9584 39.7595C18.351 39.7595 18.693 39.8577 18.9844 40.054C19.282 40.244 19.4752 40.4973 19.5639 40.814L19.4689 41.0515V40.377C19.4689 40.1807 19.5195 40.0318 19.6209 39.9305C19.7285 39.8292 19.8742 39.7785 20.0579 39.7785C20.2479 39.7785 20.3935 39.8292 20.4949 39.9305C20.5962 40.0318 20.6469 40.1807 20.6469 40.377V44.0345C20.6469 44.7882 20.4474 45.355 20.0484 45.735C19.6494 46.115 19.0699 46.305 18.3099 46.305ZM18.2814 43.4835C18.5284 43.4835 18.7405 43.4265 18.9179 43.3125C19.0952 43.1985 19.2314 43.037 19.3264 42.828C19.4277 42.6127 19.4784 42.3593 19.4784 42.068C19.4784 41.631 19.3707 41.289 19.1554 41.042C18.94 40.7887 18.6487 40.662 18.2814 40.662C18.0344 40.662 17.8222 40.719 17.6449 40.833C17.4675 40.947 17.3282 41.1085 17.2269 41.3175C17.1319 41.5265 17.0844 41.7767 17.0844 42.068C17.0844 42.505 17.192 42.8502 17.4074 43.1035C17.6227 43.3568 17.914 43.4835 18.2814 43.4835ZM22.4663 44.5665C22.2763 44.5665 22.1306 44.5095 22.0293 44.3955C21.9279 44.2815 21.8773 44.1232 21.8773 43.9205V40.434C21.8773 40.225 21.9279 40.0667 22.0293 39.959C22.1306 39.845 22.2763 39.788 22.4663 39.788C22.6563 39.788 22.8019 39.845 22.9033 39.959C23.0109 40.0667 23.0648 40.225 23.0648 40.434V43.9205C23.0648 44.1232 23.0141 44.2815 22.9128 44.3955C22.8114 44.5095 22.6626 44.5665 22.4663 44.5665ZM22.4663 38.9045C22.2446 38.9045 22.0704 38.8507 21.9438 38.743C21.8234 38.629 21.7633 38.4738 21.7633 38.2775C21.7633 38.0748 21.8234 37.9197 21.9438 37.812C22.0704 37.7043 22.2446 37.6505 22.4663 37.6505C22.6943 37.6505 22.8684 37.7043 22.9888 37.812C23.1091 37.9197 23.1693 38.0748 23.1693 38.2775C23.1693 38.4738 23.1091 38.629 22.9888 38.743C22.8684 38.8507 22.6943 38.9045 22.4663 38.9045ZM26.4457 44.595C25.958 44.595 25.5337 44.4968 25.1727 44.3005C24.8117 44.0978 24.533 43.8128 24.3367 43.4455C24.1403 43.0782 24.0422 42.6475 24.0422 42.1535C24.0422 41.7798 24.096 41.4473 24.2037 41.156C24.3177 40.8583 24.4792 40.6082 24.6882 40.4055C24.8972 40.1965 25.1505 40.0382 25.4482 39.9305C25.7458 39.8165 26.0783 39.7595 26.4457 39.7595C26.6547 39.7595 26.8795 39.788 27.1202 39.845C27.3672 39.902 27.5983 39.997 27.8137 40.13C27.915 40.1933 27.9815 40.2693 28.0132 40.358C28.0448 40.4467 28.0512 40.5385 28.0322 40.6335C28.0132 40.7222 27.972 40.8013 27.9087 40.871C27.8517 40.9343 27.7788 40.9755 27.6902 40.9945C27.6015 41.0072 27.5033 40.985 27.3957 40.928C27.2563 40.8457 27.1138 40.7855 26.9682 40.7475C26.8225 40.7032 26.6832 40.681 26.5502 40.681C26.3412 40.681 26.1575 40.7158 25.9992 40.7855C25.8408 40.8488 25.7047 40.9438 25.5907 41.0705C25.483 41.1908 25.4007 41.3428 25.3437 41.5265C25.2867 41.7102 25.2582 41.9223 25.2582 42.163C25.2582 42.6317 25.369 43.0022 25.5907 43.2745C25.8187 43.5405 26.1385 43.6735 26.5502 43.6735C26.6832 43.6735 26.8193 43.6545 26.9587 43.6165C27.1043 43.5785 27.25 43.5183 27.3957 43.436C27.5033 43.379 27.5983 43.36 27.6807 43.379C27.7693 43.398 27.8422 43.4423 27.8992 43.512C27.9562 43.5753 27.991 43.6545 28.0037 43.7495C28.0163 43.8382 28.0037 43.9268 27.9657 44.0155C27.934 44.1042 27.8707 44.177 27.7757 44.234C27.5667 44.3607 27.345 44.4525 27.1107 44.5095C26.8763 44.5665 26.6547 44.595 26.4457 44.595ZM31.4586 44.595C31.0659 44.595 30.7208 44.4968 30.4231 44.3005C30.1318 44.1042 29.9386 43.8413 29.8436 43.512L29.9481 43.2745V43.968C29.9481 44.1643 29.8974 44.3163 29.7961 44.424C29.6948 44.5253 29.5523 44.576 29.3686 44.576C29.1786 44.576 29.0329 44.5253 28.9316 44.424C28.8303 44.3163 28.7796 44.1643 28.7796 43.968V38.325C28.7796 38.1287 28.8303 37.9798 28.9316 37.8785C29.0329 37.7772 29.1786 37.7265 29.3686 37.7265C29.5586 37.7265 29.7043 37.7772 29.8056 37.8785C29.9133 37.9798 29.9671 38.1287 29.9671 38.325V40.795H29.8531C29.9544 40.4847 30.1508 40.2345 30.4421 40.0445C30.7334 39.8545 31.0723 39.7595 31.4586 39.7595C31.8703 39.7595 32.2281 39.8577 32.5321 40.054C32.8361 40.2503 33.0736 40.529 33.2446 40.89C33.4156 41.2447 33.5011 41.6722 33.5011 42.1725C33.5011 42.6665 33.4156 43.0972 33.2446 43.4645C33.0736 43.8255 32.8329 44.1042 32.5226 44.3005C32.2186 44.4968 31.8639 44.595 31.4586 44.595ZM31.1261 43.6925C31.3604 43.6925 31.5663 43.6355 31.7436 43.5215C31.9209 43.4075 32.0571 43.2397 32.1521 43.018C32.2534 42.79 32.3041 42.5082 32.3041 42.1725C32.3041 41.6658 32.1964 41.289 31.9811 41.042C31.7658 40.7887 31.4808 40.662 31.1261 40.662C30.8918 40.662 30.6859 40.719 30.5086 40.833C30.3313 40.9407 30.1919 41.1085 30.0906 41.3365C29.9956 41.5582 29.9481 41.8368 29.9481 42.1725C29.9481 42.6728 30.0558 43.0528 30.2711 43.3125C30.4864 43.5658 30.7714 43.6925 31.1261 43.6925ZM36.5944 44.595C36.1131 44.595 35.6951 44.4968 35.3404 44.3005C34.9857 44.1042 34.7102 43.8255 34.5139 43.4645C34.3176 43.0972 34.2194 42.6665 34.2194 42.1725C34.2194 41.7988 34.2732 41.4663 34.3809 41.175C34.4949 40.8773 34.6564 40.624 34.8654 40.415C35.0744 40.1997 35.3246 40.0382 35.6159 39.9305C35.9072 39.8165 36.2334 39.7595 36.5944 39.7595C37.0757 39.7595 37.4937 39.8577 37.8484 40.054C38.2031 40.2503 38.4786 40.529 38.6749 40.89C38.8712 41.251 38.9694 41.6785 38.9694 42.1725C38.9694 42.5462 38.9124 42.8818 38.7984 43.1795C38.6907 43.4772 38.5324 43.7337 38.3234 43.949C38.1144 44.158 37.8642 44.3195 37.5729 44.4335C37.2816 44.5412 36.9554 44.595 36.5944 44.595ZM36.5944 43.6925C36.8287 43.6925 37.0346 43.6355 37.2119 43.5215C37.3892 43.4075 37.5254 43.2397 37.6204 43.018C37.7217 42.79 37.7724 42.5082 37.7724 42.1725C37.7724 41.6658 37.6647 41.289 37.4494 41.042C37.2341 40.7887 36.9491 40.662 36.5944 40.662C36.3601 40.662 36.1542 40.719 35.9769 40.833C35.7996 40.9407 35.6602 41.1085 35.5589 41.3365C35.4639 41.5582 35.4164 41.8368 35.4164 42.1725C35.4164 42.6728 35.5241 43.0528 35.7394 43.3125C35.9547 43.5658 36.2397 43.6925 36.5944 43.6925ZM42.068 44.595C41.5867 44.595 41.1687 44.4968 40.814 44.3005C40.4594 44.1042 40.1839 43.8255 39.9875 43.4645C39.7912 43.0972 39.693 42.6665 39.693 42.1725C39.693 41.7988 39.7469 41.4663 39.8545 41.175C39.9685 40.8773 40.13 40.624 40.339 40.415C40.548 40.1997 40.7982 40.0382 41.0895 39.9305C41.3809 39.8165 41.707 39.7595 42.068 39.7595C42.5494 39.7595 42.9674 39.8577 43.322 40.054C43.6767 40.2503 43.9522 40.529 44.1485 40.89C44.3449 41.251 44.443 41.6785 44.443 42.1725C44.443 42.5462 44.386 42.8818 44.272 43.1795C44.1644 43.4772 44.006 43.7337 43.797 43.949C43.588 44.158 43.3379 44.3195 43.0465 44.4335C42.7552 44.5412 42.429 44.595 42.068 44.595ZM42.068 43.6925C42.3024 43.6925 42.5082 43.6355 42.6855 43.5215C42.8629 43.4075 42.999 43.2397 43.094 43.018C43.1954 42.79 43.246 42.5082 43.246 42.1725C43.246 41.6658 43.1384 41.289 42.923 41.042C42.7077 40.7887 42.4227 40.662 42.068 40.662C41.8337 40.662 41.6279 40.719 41.4505 40.833C41.2732 40.9407 41.1339 41.1085 41.0325 41.3365C40.9375 41.5582 40.89 41.8368 40.89 42.1725C40.89 42.6728 40.9977 43.0528 41.213 43.3125C41.4284 43.5658 41.7134 43.6925 42.068 43.6925ZM46.0122 44.576C45.8222 44.576 45.6765 44.5253 45.5752 44.424C45.4738 44.3163 45.4232 44.1643 45.4232 43.968V38.325C45.4232 38.1287 45.4738 37.9798 45.5752 37.8785C45.6765 37.7772 45.8222 37.7265 46.0122 37.7265C46.2022 37.7265 46.3478 37.7772 46.4492 37.8785C46.5568 37.9798 46.6107 38.1287 46.6107 38.325V41.8305H46.6297L48.1972 40.1775C48.3238 40.0508 48.4347 39.9527 48.5297 39.883C48.6247 39.8133 48.7545 39.7785 48.9192 39.7785C49.0838 39.7785 49.2073 39.8228 49.2897 39.9115C49.3783 39.9938 49.4227 40.0952 49.4227 40.2155C49.4227 40.3358 49.3657 40.4562 49.2517 40.5765L47.5987 42.3245V41.8305L49.4132 43.7875C49.5272 43.9078 49.5778 44.0313 49.5652 44.158C49.5588 44.2783 49.5082 44.3797 49.4132 44.462C49.3182 44.538 49.1978 44.576 49.0522 44.576C48.8748 44.576 48.7323 44.5412 48.6247 44.4715C48.5233 44.4018 48.4093 44.2973 48.2827 44.158L46.6297 42.429H46.6107V43.968C46.6107 44.3733 46.4112 44.576 46.0122 44.576ZM52.1449 44.576C51.9866 44.576 51.8504 44.538 51.7364 44.462C51.6224 44.3797 51.5306 44.253 51.4609 44.082L50.0834 40.567C50.0264 40.415 50.0074 40.282 50.0264 40.168C50.0518 40.0477 50.1119 39.9527 50.2069 39.883C50.3019 39.8133 50.4286 39.7785 50.5869 39.7785C50.7263 39.7785 50.8403 39.8133 50.9289 39.883C51.0176 39.9463 51.0936 40.0698 51.1569 40.2535L52.3064 43.417H52.0879L53.2754 40.1775C53.3261 40.0382 53.3926 39.9368 53.4749 39.8735C53.5636 39.8102 53.6776 39.7785 53.8169 39.7785C53.9563 39.7785 54.0703 39.8133 54.1589 39.883C54.2476 39.9463 54.3141 40.0445 54.3584 40.1775L55.5269 43.417H55.3274L56.4864 40.225C56.5498 40.054 56.6289 39.9368 56.7239 39.8735C56.8253 39.8102 56.9361 39.7785 57.0564 39.7785C57.2084 39.7785 57.3256 39.8165 57.4079 39.8925C57.4903 39.9685 57.5378 40.0667 57.5504 40.187C57.5631 40.301 57.5409 40.4277 57.4839 40.567L56.1159 44.082C56.0526 44.2467 55.9608 44.3702 55.8404 44.4525C55.7264 44.5348 55.5903 44.576 55.4319 44.576C55.2736 44.576 55.1343 44.5348 55.0139 44.4525C54.8999 44.3702 54.8113 44.2467 54.7479 44.082L53.5034 40.7855H54.0449L52.8289 44.0725C52.7656 44.2435 52.6769 44.3702 52.5629 44.4525C52.4489 44.5348 52.3096 44.576 52.1449 44.576ZM59.0566 44.576C58.8602 44.576 58.7082 44.5253 58.6006 44.424C58.4992 44.3163 58.4486 44.1643 58.4486 43.968V40.377C58.4486 40.1807 58.4992 40.0318 58.6006 39.9305C58.7019 39.8292 58.8444 39.7785 59.0281 39.7785C59.2117 39.7785 59.3542 39.8292 59.4556 39.9305C59.5569 40.0318 59.6076 40.1807 59.6076 40.377V40.9755H59.5126C59.6012 40.5955 59.7754 40.3073 60.0351 40.111C60.2947 39.9147 60.6399 39.7975 61.0706 39.7595C61.2036 39.7468 61.3081 39.7817 61.3841 39.864C61.4664 39.94 61.5139 40.0603 61.5266 40.225C61.5392 40.3833 61.5012 40.5132 61.4126 40.6145C61.3302 40.7095 61.2036 40.7665 61.0326 40.7855L60.8236 40.8045C60.4372 40.8425 60.1459 40.9628 59.9496 41.1655C59.7532 41.3618 59.6551 41.6405 59.6551 42.0015V43.968C59.6551 44.1643 59.6044 44.3163 59.5031 44.424C59.4017 44.5253 59.2529 44.576 59.0566 44.576ZM62.7578 44.5665C62.5678 44.5665 62.4221 44.5095 62.3208 44.3955C62.2194 44.2815 62.1688 44.1232 62.1688 43.9205V40.434C62.1688 40.225 62.2194 40.0667 62.3208 39.959C62.4221 39.845 62.5678 39.788 62.7578 39.788C62.9478 39.788 63.0934 39.845 63.1948 39.959C63.3024 40.0667 63.3563 40.225 63.3563 40.434V43.9205C63.3563 44.1232 63.3056 44.2815 63.2043 44.3955C63.1029 44.5095 62.9541 44.5665 62.7578 44.5665ZM62.7578 38.9045C62.5361 38.9045 62.3619 38.8507 62.2353 38.743C62.1149 38.629 62.0548 38.4738 62.0548 38.2775C62.0548 38.0748 62.1149 37.9197 62.2353 37.812C62.3619 37.7043 62.5361 37.6505 62.7578 37.6505C62.9858 37.6505 63.1599 37.7043 63.2803 37.812C63.4006 37.9197 63.4608 38.0748 63.4608 38.2775C63.4608 38.4738 63.4006 38.629 63.2803 38.743C63.1599 38.8507 62.9858 38.9045 62.7578 38.9045ZM66.7182 44.595C66.3065 44.595 65.9613 44.5253 65.6827 44.386C65.4103 44.2467 65.2077 44.044 65.0747 43.778C64.9417 43.5057 64.8752 43.17 64.8752 42.771V40.7475H64.3812C64.2292 40.7475 64.112 40.7095 64.0297 40.6335C63.9473 40.5512 63.9062 40.4403 63.9062 40.301C63.9062 40.1553 63.9473 40.0445 64.0297 39.9685C64.112 39.8925 64.2292 39.8545 64.3812 39.8545H64.8752V38.99C64.8752 38.7937 64.9258 38.6448 65.0272 38.5435C65.1348 38.4422 65.2837 38.3915 65.4737 38.3915C65.6637 38.3915 65.8093 38.4422 65.9107 38.5435C66.012 38.6448 66.0627 38.7937 66.0627 38.99V39.8545H67.0697C67.2217 39.8545 67.3388 39.8925 67.4212 39.9685C67.5035 40.0445 67.5447 40.1553 67.5447 40.301C67.5447 40.4403 67.5035 40.5512 67.4212 40.6335C67.3388 40.7095 67.2217 40.7475 67.0697 40.7475H66.0627V42.7045C66.0627 43.0085 66.1292 43.2365 66.2622 43.3885C66.3952 43.5405 66.6105 43.6165 66.9082 43.6165C67.0158 43.6165 67.1108 43.607 67.1932 43.588C67.2755 43.569 67.3483 43.5563 67.4117 43.55C67.4877 43.5437 67.551 43.569 67.6017 43.626C67.6523 43.6767 67.6777 43.7843 67.6777 43.949C67.6777 44.0757 67.6555 44.1897 67.6112 44.291C67.5732 44.386 67.5003 44.4525 67.3927 44.4905C67.3103 44.5158 67.2027 44.538 67.0697 44.557C66.9367 44.5823 66.8195 44.595 66.7182 44.595ZM70.4793 44.595C69.9536 44.595 69.5008 44.4968 69.1208 44.3005C68.7408 44.1042 68.4463 43.8255 68.2373 43.4645C68.0346 43.1035 67.9333 42.676 67.9333 42.182C67.9333 41.7007 68.0314 41.2795 68.2278 40.9185C68.4304 40.5575 68.7059 40.2757 69.0543 40.073C69.4089 39.864 69.8111 39.7595 70.2608 39.7595C70.5901 39.7595 70.8846 39.8133 71.1443 39.921C71.4103 40.0287 71.6351 40.1838 71.8188 40.3865C72.0088 40.5892 72.1513 40.8362 72.2463 41.1275C72.3476 41.4125 72.3983 41.7355 72.3983 42.0965C72.3983 42.2105 72.3571 42.2992 72.2748 42.3625C72.1988 42.4195 72.0879 42.448 71.9423 42.448H68.8928V41.764H71.5623L71.4103 41.9065C71.4103 41.6152 71.3659 41.3713 71.2773 41.175C71.1949 40.9787 71.0714 40.8298 70.9068 40.7285C70.7484 40.6208 70.5489 40.567 70.3083 40.567C70.0423 40.567 69.8143 40.6303 69.6243 40.757C69.4406 40.8773 69.2981 41.0515 69.1968 41.2795C69.1018 41.5012 69.0543 41.7672 69.0543 42.0775V42.144C69.0543 42.6633 69.1746 43.0528 69.4153 43.3125C69.6623 43.5658 70.0233 43.6925 70.4983 43.6925C70.6629 43.6925 70.8466 43.6735 71.0493 43.6355C71.2583 43.5912 71.4546 43.5183 71.6383 43.417C71.7713 43.341 71.8884 43.3093 71.9898 43.322C72.0911 43.3283 72.1703 43.3632 72.2273 43.4265C72.2906 43.4898 72.3286 43.569 72.3413 43.664C72.3539 43.7527 72.3349 43.8445 72.2843 43.9395C72.2399 44.0345 72.1608 44.1168 72.0468 44.1865C71.8251 44.3258 71.5686 44.4303 71.2773 44.5C70.9923 44.5633 70.7263 44.595 70.4793 44.595ZM73.9467 44.576C73.7504 44.576 73.5984 44.5253 73.4907 44.424C73.3894 44.3163 73.3387 44.1643 73.3387 43.968V40.377C73.3387 40.1807 73.3894 40.0318 73.4907 39.9305C73.592 39.8292 73.7345 39.7785 73.9182 39.7785C74.1019 39.7785 74.2444 39.8292 74.3457 39.9305C74.447 40.0318 74.4977 40.1807 74.4977 40.377V40.9755H74.4027C74.4914 40.5955 74.6655 40.3073 74.9252 40.111C75.1849 39.9147 75.53 39.7975 75.9607 39.7595C76.0937 39.7468 76.1982 39.7817 76.2742 39.864C76.3565 39.94 76.404 40.0603 76.4167 40.225C76.4294 40.3833 76.3914 40.5132 76.3027 40.6145C76.2204 40.7095 76.0937 40.7665 75.9227 40.7855L75.7137 40.8045C75.3274 40.8425 75.036 40.9628 74.8397 41.1655C74.6434 41.3618 74.5452 41.6405 74.5452 42.0015V43.968C74.5452 44.1643 74.4945 44.3163 74.3932 44.424C74.2919 44.5253 74.143 44.576 73.9467 44.576Z" fill="#AA0136"/>
<defs>
<linearGradient id="paint0_linear_24_1419" x1="0" y1="0.5" x2="76" y2="84" gradientUnits="userSpaceOnUse">
<stop stop-color="white"/>
<stop offset="1" stop-color="#FEF3F6"/>
</linearGradient>
</defs>
</svg>
