<svg width="75" height="10" viewBox="0 0 75 10" fill="none" xmlns="http://www.w3.org/2000/svg">
<path d="M1.2255 7.576C1.0355 7.576 0.889833 7.52533 0.7885 7.424C0.687167 7.31633 0.6365 7.16433 0.6365 6.968V3.377C0.6365 3.18067 0.687167 3.03183 0.7885 2.9305C0.889833 2.82917 1.03233 2.7785 1.216 2.7785C1.39967 2.7785 1.54217 2.82917 1.6435 2.9305C1.74483 3.03183 1.7955 3.18067 1.7955 3.377V4.0705L1.691 3.7855C1.81767 3.46883 2.014 3.21867 2.28 3.035C2.546 2.85133 2.86267 2.7595 3.23 2.7595C3.60367 2.7595 3.91083 2.84817 4.1515 3.0255C4.39217 3.20283 4.56 3.47517 4.655 3.8425H4.522C4.64867 3.50683 4.85767 3.244 5.149 3.054C5.44033 2.85767 5.776 2.7595 6.156 2.7595C6.51067 2.7595 6.802 2.82917 7.03 2.9685C7.26433 3.10783 7.4385 3.32 7.5525 3.605C7.6665 3.88367 7.7235 4.23833 7.7235 4.669V6.968C7.7235 7.16433 7.66967 7.31633 7.562 7.424C7.46067 7.52533 7.315 7.576 7.125 7.576C6.935 7.576 6.78933 7.52533 6.688 7.424C6.58667 7.31633 6.536 7.16433 6.536 6.968V4.7165C6.536 4.36183 6.47583 4.10217 6.3555 3.9375C6.2415 3.77283 6.04517 3.6905 5.7665 3.6905C5.45617 3.6905 5.21233 3.80133 5.035 4.023C4.85767 4.23833 4.769 4.53917 4.769 4.9255V6.968C4.769 7.16433 4.71833 7.31633 4.617 7.424C4.51567 7.52533 4.37 7.576 4.18 7.576C3.99 7.576 3.84117 7.52533 3.7335 7.424C3.63217 7.31633 3.5815 7.16433 3.5815 6.968V4.7165C3.5815 4.36183 3.52133 4.10217 3.401 3.9375C3.287 3.77283 3.09383 3.6905 2.8215 3.6905C2.51117 3.6905 2.26733 3.80133 2.09 4.023C1.91267 4.23833 1.824 4.53917 1.824 4.9255V6.968C1.824 7.37333 1.6245 7.576 1.2255 7.576ZM10.4781 7.595C10.1424 7.595 9.84155 7.53167 9.57555 7.405C9.31589 7.272 9.11005 7.09467 8.95805 6.873C8.81239 6.65133 8.73955 6.40117 8.73955 6.1225C8.73955 5.7805 8.82822 5.51133 9.00555 5.315C9.18289 5.11233 9.47105 4.96667 9.87005 4.878C10.2691 4.78933 10.8042 4.745 11.4756 4.745H11.9506V5.429H11.4851C11.0924 5.429 10.7789 5.448 10.5446 5.486C10.3102 5.524 10.1424 5.5905 10.0411 5.6855C9.94605 5.77417 9.89855 5.90083 9.89855 6.0655C9.89855 6.2745 9.97139 6.4455 10.1171 6.5785C10.2627 6.7115 10.4654 6.778 10.7251 6.778C10.9341 6.778 11.1177 6.7305 11.2761 6.6355C11.4407 6.53417 11.5706 6.398 11.6656 6.227C11.7606 6.056 11.8081 5.85967 11.8081 5.638V4.5455C11.8081 4.22883 11.7384 4.00083 11.5991 3.8615C11.4597 3.72217 11.2254 3.6525 10.8961 3.6525C10.7124 3.6525 10.5129 3.67467 10.2976 3.719C10.0886 3.76333 9.86689 3.83933 9.63255 3.947C9.51222 4.004 9.40455 4.01983 9.30955 3.9945C9.22089 3.96917 9.15122 3.9185 9.10055 3.8425C9.04989 3.76017 9.02455 3.6715 9.02455 3.5765C9.02455 3.4815 9.04989 3.38967 9.10055 3.301C9.15122 3.206 9.23672 3.13633 9.35705 3.092C9.64839 2.97167 9.92705 2.88617 10.1931 2.8355C10.4654 2.78483 10.7124 2.7595 10.9341 2.7595C11.3901 2.7595 11.7637 2.82917 12.0551 2.9685C12.3527 3.10783 12.5744 3.32 12.7201 3.605C12.8657 3.88367 12.9386 4.24467 12.9386 4.688V6.968C12.9386 7.16433 12.8911 7.31633 12.7961 7.424C12.7011 7.52533 12.5649 7.576 12.3876 7.576C12.2102 7.576 12.0709 7.52533 11.9696 7.424C11.8746 7.31633 11.8271 7.16433 11.8271 6.968V6.512H11.9031C11.8587 6.73367 11.7701 6.92683 11.6371 7.0915C11.5104 7.24983 11.3489 7.37333 11.1526 7.462C10.9562 7.55067 10.7314 7.595 10.4781 7.595ZM16.3099 9.305C15.9679 9.305 15.6354 9.27333 15.3124 9.21C14.9957 9.14667 14.7075 9.0485 14.4479 8.9155C14.3275 8.85217 14.2452 8.77617 14.2009 8.6875C14.1629 8.59883 14.1502 8.507 14.1629 8.412C14.1819 8.32333 14.2199 8.24417 14.2769 8.1745C14.3402 8.10483 14.4162 8.05733 14.5049 8.032C14.5935 8.00667 14.6854 8.01933 14.7804 8.07C15.059 8.20933 15.3219 8.298 15.5689 8.336C15.8222 8.38033 16.0375 8.4025 16.2149 8.4025C16.6392 8.4025 16.9559 8.298 17.1649 8.089C17.3802 7.88633 17.4879 7.58233 17.4879 7.177V6.322H17.5734C17.4784 6.645 17.2789 6.90467 16.9749 7.101C16.6772 7.291 16.3384 7.386 15.9584 7.386C15.5404 7.386 15.1762 7.291 14.8659 7.101C14.5555 6.90467 14.3149 6.63233 14.1439 6.284C13.9729 5.93567 13.8874 5.53033 13.8874 5.068C13.8874 4.71967 13.9349 4.40617 14.0299 4.1275C14.1312 3.8425 14.2705 3.59867 14.4479 3.396C14.6315 3.19333 14.85 3.03817 15.1034 2.9305C15.363 2.8165 15.648 2.7595 15.9584 2.7595C16.351 2.7595 16.693 2.85767 16.9844 3.054C17.282 3.244 17.4752 3.49733 17.5639 3.814L17.4689 4.0515V3.377C17.4689 3.18067 17.5195 3.03183 17.6209 2.9305C17.7285 2.82917 17.8742 2.7785 18.0579 2.7785C18.2479 2.7785 18.3935 2.82917 18.4949 2.9305C18.5962 3.03183 18.6469 3.18067 18.6469 3.377V7.0345C18.6469 7.78817 18.4474 8.355 18.0484 8.735C17.6494 9.115 17.0699 9.305 16.3099 9.305ZM16.2814 6.4835C16.5284 6.4835 16.7405 6.4265 16.9179 6.3125C17.0952 6.1985 17.2314 6.037 17.3264 5.828C17.4277 5.61267 17.4784 5.35933 17.4784 5.068C17.4784 4.631 17.3707 4.289 17.1554 4.042C16.94 3.78867 16.6487 3.662 16.2814 3.662C16.0344 3.662 15.8222 3.719 15.6449 3.833C15.4675 3.947 15.3282 4.1085 15.2269 4.3175C15.1319 4.5265 15.0844 4.77667 15.0844 5.068C15.0844 5.505 15.192 5.85017 15.4074 6.1035C15.6227 6.35683 15.914 6.4835 16.2814 6.4835ZM20.4663 7.5665C20.2763 7.5665 20.1306 7.5095 20.0293 7.3955C19.9279 7.2815 19.8773 7.12317 19.8773 6.9205V3.434C19.8773 3.225 19.9279 3.06667 20.0293 2.959C20.1306 2.845 20.2763 2.788 20.4663 2.788C20.6563 2.788 20.8019 2.845 20.9033 2.959C21.0109 3.06667 21.0648 3.225 21.0648 3.434V6.9205C21.0648 7.12317 21.0141 7.2815 20.9128 7.3955C20.8114 7.5095 20.6626 7.5665 20.4663 7.5665ZM20.4663 1.9045C20.2446 1.9045 20.0704 1.85067 19.9438 1.743C19.8234 1.629 19.7633 1.47383 19.7633 1.2775C19.7633 1.07483 19.8234 0.919666 19.9438 0.811999C20.0704 0.704333 20.2446 0.6505 20.4663 0.6505C20.6943 0.6505 20.8684 0.704333 20.9888 0.811999C21.1091 0.919666 21.1693 1.07483 21.1693 1.2775C21.1693 1.47383 21.1091 1.629 20.9888 1.743C20.8684 1.85067 20.6943 1.9045 20.4663 1.9045ZM24.4457 7.595C23.958 7.595 23.5337 7.49683 23.1727 7.3005C22.8117 7.09783 22.533 6.81283 22.3367 6.4455C22.1403 6.07817 22.0422 5.6475 22.0422 5.1535C22.0422 4.77983 22.096 4.44733 22.2037 4.156C22.3177 3.85833 22.4792 3.60817 22.6882 3.4055C22.8972 3.1965 23.1505 3.03817 23.4482 2.9305C23.7458 2.8165 24.0783 2.7595 24.4457 2.7595C24.6547 2.7595 24.8795 2.788 25.1202 2.845C25.3672 2.902 25.5983 2.997 25.8137 3.13C25.915 3.19333 25.9815 3.26933 26.0132 3.358C26.0448 3.44667 26.0512 3.5385 26.0322 3.6335C26.0132 3.72217 25.972 3.80133 25.9087 3.871C25.8517 3.93433 25.7788 3.9755 25.6902 3.9945C25.6015 4.00717 25.5033 3.985 25.3957 3.928C25.2563 3.84567 25.1138 3.7855 24.9682 3.7475C24.8225 3.70317 24.6832 3.681 24.5502 3.681C24.3412 3.681 24.1575 3.71583 23.9992 3.7855C23.8408 3.84883 23.7047 3.94383 23.5907 4.0705C23.483 4.19083 23.4007 4.34283 23.3437 4.5265C23.2867 4.71017 23.2582 4.92233 23.2582 5.163C23.2582 5.63167 23.369 6.00217 23.5907 6.2745C23.8187 6.5405 24.1385 6.6735 24.5502 6.6735C24.6832 6.6735 24.8193 6.6545 24.9587 6.6165C25.1043 6.5785 25.25 6.51833 25.3957 6.436C25.5033 6.379 25.5983 6.36 25.6807 6.379C25.7693 6.398 25.8422 6.44233 25.8992 6.512C25.9562 6.57533 25.991 6.6545 26.0037 6.7495C26.0163 6.83817 26.0037 6.92683 25.9657 7.0155C25.934 7.10417 25.8707 7.177 25.7757 7.234C25.5667 7.36067 25.345 7.4525 25.1107 7.5095C24.8763 7.5665 24.6547 7.595 24.4457 7.595ZM29.4586 7.595C29.0659 7.595 28.7208 7.49683 28.4231 7.3005C28.1318 7.10417 27.9386 6.84133 27.8436 6.512L27.9481 6.2745V6.968C27.9481 7.16433 27.8974 7.31633 27.7961 7.424C27.6948 7.52533 27.5523 7.576 27.3686 7.576C27.1786 7.576 27.0329 7.52533 26.9316 7.424C26.8303 7.31633 26.7796 7.16433 26.7796 6.968V1.325C26.7796 1.12867 26.8303 0.979833 26.9316 0.8785C27.0329 0.777166 27.1786 0.726499 27.3686 0.726499C27.5586 0.726499 27.7043 0.777166 27.8056 0.8785C27.9133 0.979833 27.9671 1.12867 27.9671 1.325V3.795H27.8531C27.9544 3.48467 28.1508 3.2345 28.4421 3.0445C28.7334 2.8545 29.0723 2.7595 29.4586 2.7595C29.8703 2.7595 30.2281 2.85767 30.5321 3.054C30.8361 3.25033 31.0736 3.529 31.2446 3.89C31.4156 4.24467 31.5011 4.67217 31.5011 5.1725C31.5011 5.6665 31.4156 6.09717 31.2446 6.4645C31.0736 6.8255 30.8329 7.10417 30.5226 7.3005C30.2186 7.49683 29.8639 7.595 29.4586 7.595ZM29.1261 6.6925C29.3604 6.6925 29.5663 6.6355 29.7436 6.5215C29.9209 6.4075 30.0571 6.23967 30.1521 6.018C30.2534 5.79 30.3041 5.50817 30.3041 5.1725C30.3041 4.66583 30.1964 4.289 29.9811 4.042C29.7658 3.78867 29.4808 3.662 29.1261 3.662C28.8918 3.662 28.6859 3.719 28.5086 3.833C28.3313 3.94067 28.1919 4.1085 28.0906 4.3365C27.9956 4.55817 27.9481 4.83683 27.9481 5.1725C27.9481 5.67283 28.0558 6.05283 28.2711 6.3125C28.4864 6.56583 28.7714 6.6925 29.1261 6.6925ZM34.5944 7.595C34.1131 7.595 33.6951 7.49683 33.3404 7.3005C32.9857 7.10417 32.7102 6.8255 32.5139 6.4645C32.3176 6.09717 32.2194 5.6665 32.2194 5.1725C32.2194 4.79883 32.2732 4.46633 32.3809 4.175C32.4949 3.87733 32.6564 3.624 32.8654 3.415C33.0744 3.19967 33.3246 3.03817 33.6159 2.9305C33.9072 2.8165 34.2334 2.7595 34.5944 2.7595C35.0757 2.7595 35.4937 2.85767 35.8484 3.054C36.2031 3.25033 36.4786 3.529 36.6749 3.89C36.8712 4.251 36.9694 4.6785 36.9694 5.1725C36.9694 5.54617 36.9124 5.88183 36.7984 6.1795C36.6907 6.47717 36.5324 6.73367 36.3234 6.949C36.1144 7.158 35.8642 7.3195 35.5729 7.4335C35.2816 7.54117 34.9554 7.595 34.5944 7.595ZM34.5944 6.6925C34.8287 6.6925 35.0346 6.6355 35.2119 6.5215C35.3892 6.4075 35.5254 6.23967 35.6204 6.018C35.7217 5.79 35.7724 5.50817 35.7724 5.1725C35.7724 4.66583 35.6647 4.289 35.4494 4.042C35.2341 3.78867 34.9491 3.662 34.5944 3.662C34.3601 3.662 34.1542 3.719 33.9769 3.833C33.7996 3.94067 33.6602 4.1085 33.5589 4.3365C33.4639 4.55817 33.4164 4.83683 33.4164 5.1725C33.4164 5.67283 33.5241 6.05283 33.7394 6.3125C33.9547 6.56583 34.2397 6.6925 34.5944 6.6925ZM40.068 7.595C39.5867 7.595 39.1687 7.49683 38.814 7.3005C38.4594 7.10417 38.1839 6.8255 37.9875 6.4645C37.7912 6.09717 37.693 5.6665 37.693 5.1725C37.693 4.79883 37.7469 4.46633 37.8545 4.175C37.9685 3.87733 38.13 3.624 38.339 3.415C38.548 3.19967 38.7982 3.03817 39.0895 2.9305C39.3809 2.8165 39.707 2.7595 40.068 2.7595C40.5494 2.7595 40.9674 2.85767 41.322 3.054C41.6767 3.25033 41.9522 3.529 42.1485 3.89C42.3449 4.251 42.443 4.6785 42.443 5.1725C42.443 5.54617 42.386 5.88183 42.272 6.1795C42.1644 6.47717 42.006 6.73367 41.797 6.949C41.588 7.158 41.3379 7.3195 41.0465 7.4335C40.7552 7.54117 40.429 7.595 40.068 7.595ZM40.068 6.6925C40.3024 6.6925 40.5082 6.6355 40.6855 6.5215C40.8629 6.4075 40.999 6.23967 41.094 6.018C41.1954 5.79 41.246 5.50817 41.246 5.1725C41.246 4.66583 41.1384 4.289 40.923 4.042C40.7077 3.78867 40.4227 3.662 40.068 3.662C39.8337 3.662 39.6279 3.719 39.4505 3.833C39.2732 3.94067 39.1339 4.1085 39.0325 4.3365C38.9375 4.55817 38.89 4.83683 38.89 5.1725C38.89 5.67283 38.9977 6.05283 39.213 6.3125C39.4284 6.56583 39.7134 6.6925 40.068 6.6925ZM44.0122 7.576C43.8222 7.576 43.6765 7.52533 43.5752 7.424C43.4738 7.31633 43.4232 7.16433 43.4232 6.968V1.325C43.4232 1.12867 43.4738 0.979833 43.5752 0.8785C43.6765 0.777166 43.8222 0.726499 44.0122 0.726499C44.2022 0.726499 44.3478 0.777166 44.4492 0.8785C44.5568 0.979833 44.6107 1.12867 44.6107 1.325V4.8305H44.6297L46.1972 3.1775C46.3238 3.05083 46.4347 2.95267 46.5297 2.883C46.6247 2.81333 46.7545 2.7785 46.9192 2.7785C47.0838 2.7785 47.2073 2.82283 47.2897 2.9115C47.3783 2.99383 47.4227 3.09517 47.4227 3.2155C47.4227 3.33583 47.3657 3.45617 47.2517 3.5765L45.5987 5.3245V4.8305L47.4132 6.7875C47.5272 6.90783 47.5778 7.03133 47.5652 7.158C47.5588 7.27833 47.5082 7.37967 47.4132 7.462C47.3182 7.538 47.1978 7.576 47.0522 7.576C46.8748 7.576 46.7323 7.54117 46.6247 7.4715C46.5233 7.40183 46.4093 7.29733 46.2827 7.158L44.6297 5.429H44.6107V6.968C44.6107 7.37333 44.4112 7.576 44.0122 7.576ZM50.1449 7.576C49.9866 7.576 49.8504 7.538 49.7364 7.462C49.6224 7.37967 49.5306 7.253 49.4609 7.082L48.0834 3.567C48.0264 3.415 48.0074 3.282 48.0264 3.168C48.0518 3.04767 48.1119 2.95267 48.2069 2.883C48.3019 2.81333 48.4286 2.7785 48.5869 2.7785C48.7263 2.7785 48.8403 2.81333 48.9289 2.883C49.0176 2.94633 49.0936 3.06983 49.1569 3.2535L50.3064 6.417H50.0879L51.2754 3.1775C51.3261 3.03817 51.3926 2.93683 51.4749 2.8735C51.5636 2.81017 51.6776 2.7785 51.8169 2.7785C51.9563 2.7785 52.0703 2.81333 52.1589 2.883C52.2476 2.94633 52.3141 3.0445 52.3584 3.1775L53.5269 6.417H53.3274L54.4864 3.225C54.5498 3.054 54.6289 2.93683 54.7239 2.8735C54.8253 2.81017 54.9361 2.7785 55.0564 2.7785C55.2084 2.7785 55.3256 2.8165 55.4079 2.8925C55.4903 2.9685 55.5378 3.06667 55.5504 3.187C55.5631 3.301 55.5409 3.42767 55.4839 3.567L54.1159 7.082C54.0526 7.24667 53.9608 7.37017 53.8404 7.4525C53.7264 7.53483 53.5903 7.576 53.4319 7.576C53.2736 7.576 53.1343 7.53483 53.0139 7.4525C52.8999 7.37017 52.8113 7.24667 52.7479 7.082L51.5034 3.7855H52.0449L50.8289 7.0725C50.7656 7.2435 50.6769 7.37017 50.5629 7.4525C50.4489 7.53483 50.3096 7.576 50.1449 7.576ZM57.0566 7.576C56.8602 7.576 56.7082 7.52533 56.6006 7.424C56.4992 7.31633 56.4486 7.16433 56.4486 6.968V3.377C56.4486 3.18067 56.4992 3.03183 56.6006 2.9305C56.7019 2.82917 56.8444 2.7785 57.0281 2.7785C57.2117 2.7785 57.3542 2.82917 57.4556 2.9305C57.5569 3.03183 57.6076 3.18067 57.6076 3.377V3.9755H57.5126C57.6012 3.5955 57.7754 3.30733 58.0351 3.111C58.2947 2.91467 58.6399 2.7975 59.0706 2.7595C59.2036 2.74683 59.3081 2.78167 59.3841 2.864C59.4664 2.94 59.5139 3.06033 59.5266 3.225C59.5392 3.38333 59.5012 3.51317 59.4126 3.6145C59.3302 3.7095 59.2036 3.7665 59.0326 3.7855L58.8236 3.8045C58.4372 3.8425 58.1459 3.96283 57.9496 4.1655C57.7532 4.36183 57.6551 4.6405 57.6551 5.0015V6.968C57.6551 7.16433 57.6044 7.31633 57.5031 7.424C57.4017 7.52533 57.2529 7.576 57.0566 7.576ZM60.7578 7.5665C60.5678 7.5665 60.4221 7.5095 60.3208 7.3955C60.2194 7.2815 60.1688 7.12317 60.1688 6.9205V3.434C60.1688 3.225 60.2194 3.06667 60.3208 2.959C60.4221 2.845 60.5678 2.788 60.7578 2.788C60.9478 2.788 61.0934 2.845 61.1948 2.959C61.3024 3.06667 61.3563 3.225 61.3563 3.434V6.9205C61.3563 7.12317 61.3056 7.2815 61.2043 7.3955C61.1029 7.5095 60.9541 7.5665 60.7578 7.5665ZM60.7578 1.9045C60.5361 1.9045 60.3619 1.85067 60.2353 1.743C60.1149 1.629 60.0548 1.47383 60.0548 1.2775C60.0548 1.07483 60.1149 0.919666 60.2353 0.811999C60.3619 0.704333 60.5361 0.6505 60.7578 0.6505C60.9858 0.6505 61.1599 0.704333 61.2803 0.811999C61.4006 0.919666 61.4608 1.07483 61.4608 1.2775C61.4608 1.47383 61.4006 1.629 61.2803 1.743C61.1599 1.85067 60.9858 1.9045 60.7578 1.9045ZM64.7182 7.595C64.3065 7.595 63.9613 7.52533 63.6827 7.386C63.4103 7.24667 63.2077 7.044 63.0747 6.778C62.9417 6.50567 62.8752 6.17 62.8752 5.771V3.7475H62.3812C62.2292 3.7475 62.112 3.7095 62.0297 3.6335C61.9473 3.55117 61.9062 3.44033 61.9062 3.301C61.9062 3.15533 61.9473 3.0445 62.0297 2.9685C62.112 2.8925 62.2292 2.8545 62.3812 2.8545H62.8752V1.99C62.8752 1.79367 62.9258 1.64483 63.0272 1.5435C63.1348 1.44217 63.2837 1.3915 63.4737 1.3915C63.6637 1.3915 63.8093 1.44217 63.9107 1.5435C64.012 1.64483 64.0627 1.79367 64.0627 1.99V2.8545H65.0697C65.2217 2.8545 65.3388 2.8925 65.4212 2.9685C65.5035 3.0445 65.5447 3.15533 65.5447 3.301C65.5447 3.44033 65.5035 3.55117 65.4212 3.6335C65.3388 3.7095 65.2217 3.7475 65.0697 3.7475H64.0627V5.7045C64.0627 6.0085 64.1292 6.2365 64.2622 6.3885C64.3952 6.5405 64.6105 6.6165 64.9082 6.6165C65.0158 6.6165 65.1108 6.607 65.1932 6.588C65.2755 6.569 65.3483 6.55633 65.4117 6.55C65.4877 6.54367 65.551 6.569 65.6017 6.626C65.6523 6.67667 65.6777 6.78433 65.6777 6.949C65.6777 7.07567 65.6555 7.18967 65.6112 7.291C65.5732 7.386 65.5003 7.4525 65.3927 7.4905C65.3103 7.51583 65.2027 7.538 65.0697 7.557C64.9367 7.58233 64.8195 7.595 64.7182 7.595ZM68.4793 7.595C67.9536 7.595 67.5008 7.49683 67.1208 7.3005C66.7408 7.10417 66.4463 6.8255 66.2373 6.4645C66.0346 6.1035 65.9333 5.676 65.9333 5.182C65.9333 4.70067 66.0314 4.2795 66.2278 3.9185C66.4304 3.5575 66.7059 3.27567 67.0543 3.073C67.4089 2.864 67.8111 2.7595 68.2608 2.7595C68.5901 2.7595 68.8846 2.81333 69.1443 2.921C69.4103 3.02867 69.6351 3.18383 69.8188 3.3865C70.0088 3.58917 70.1513 3.83617 70.2463 4.1275C70.3476 4.4125 70.3983 4.7355 70.3983 5.0965C70.3983 5.2105 70.3571 5.29917 70.2748 5.3625C70.1988 5.4195 70.0879 5.448 69.9423 5.448H66.8928V4.764H69.5623L69.4103 4.9065C69.4103 4.61517 69.3659 4.37133 69.2773 4.175C69.1949 3.97867 69.0714 3.82983 68.9068 3.7285C68.7484 3.62083 68.5489 3.567 68.3083 3.567C68.0423 3.567 67.8143 3.63033 67.6243 3.757C67.4406 3.87733 67.2981 4.0515 67.1968 4.2795C67.1018 4.50117 67.0543 4.76717 67.0543 5.0775V5.144C67.0543 5.66333 67.1746 6.05283 67.4153 6.3125C67.6623 6.56583 68.0233 6.6925 68.4983 6.6925C68.6629 6.6925 68.8466 6.6735 69.0493 6.6355C69.2583 6.59117 69.4546 6.51833 69.6383 6.417C69.7713 6.341 69.8884 6.30933 69.9898 6.322C70.0911 6.32833 70.1703 6.36317 70.2273 6.4265C70.2906 6.48983 70.3286 6.569 70.3413 6.664C70.3539 6.75267 70.3349 6.8445 70.2843 6.9395C70.2399 7.0345 70.1608 7.11683 70.0468 7.1865C69.8251 7.32583 69.5686 7.43033 69.2773 7.5C68.9923 7.56333 68.7263 7.595 68.4793 7.595ZM71.9467 7.576C71.7504 7.576 71.5984 7.52533 71.4907 7.424C71.3894 7.31633 71.3387 7.16433 71.3387 6.968V3.377C71.3387 3.18067 71.3894 3.03183 71.4907 2.9305C71.592 2.82917 71.7345 2.7785 71.9182 2.7785C72.1019 2.7785 72.2444 2.82917 72.3457 2.9305C72.447 3.03183 72.4977 3.18067 72.4977 3.377V3.9755H72.4027C72.4914 3.5955 72.6655 3.30733 72.9252 3.111C73.1849 2.91467 73.53 2.7975 73.9607 2.7595C74.0937 2.74683 74.1982 2.78167 74.2742 2.864C74.3565 2.94 74.404 3.06033 74.4167 3.225C74.4294 3.38333 74.3914 3.51317 74.3027 3.6145C74.2204 3.7095 74.0937 3.7665 73.9227 3.7855L73.7137 3.8045C73.3274 3.8425 73.036 3.96283 72.8397 4.1655C72.6434 4.36183 72.5452 4.6405 72.5452 5.0015V6.968C72.5452 7.16433 72.4945 7.31633 72.3932 7.424C72.2919 7.52533 72.143 7.576 71.9467 7.576Z" fill="#AA0136"/>
</svg>
