<svg width="33" height="52" viewBox="0 0 33 52" fill="none" xmlns="http://www.w3.org/2000/svg">
<path d="M31.7092 15.8836H21.3853C21.3853 15.8836 20.9239 16.1261 20.8322 16.2618C20.7406 16.3976 20.6479 16.64 20.6479 16.64V19.4764C20.6479 19.4764 20.4466 19.9247 20.2792 20.0436C20.1468 20.1376 19.9104 20.2327 19.9104 20.2327H17.1451C17.1451 20.2327 16.8857 20.2456 16.7764 20.4218C16.6542 20.6188 16.592 20.9891 16.592 20.9891L16.7764 31.5782C16.7764 31.5782 16.9369 31.9865 17.1451 32.1455C17.3832 32.3272 17.8825 32.3345 17.8825 32.3345H26.5473L31.8936 34.6036C31.8936 34.6036 32.5672 34.692 32.8153 34.4145C33.016 34.1902 32.9997 33.6582 32.9997 33.6582L32.4466 32.3345V16.8291L32.2623 16.2618L31.7092 15.8836Z" fill="#DF6913"/>
<rect width="16.592" height="15.8836" rx="2" fill="#49A5EB"/>
<path d="M1.29046 20.2327C1.89156 19.6836 2.37039 19.5483 3.13402 19.2873C3.89764 19.0262 4.58067 18.9091 5.16193 18.9091H14.9328V23.4473H5.16193V46.8945H27.8377V37.2509H32.6309V49.1636C32.6309 49.1636 31.8397 50.3186 31.1561 50.8655C30.5716 51.333 29.4969 51.8109 29.4969 51.8109L3.31837 52C3.31837 52 1.91408 51.6766 1.29046 51.0545C0.75909 50.5245 0.368682 49.3527 0.368682 49.3527L0.184326 21.9345C0.184326 21.9345 0.708918 20.764 1.29046 20.2327Z" fill="#49A5EB"/>
</svg>
