<svg width="80" height="80" viewBox="0 0 80 80" fill="none" xmlns="http://www.w3.org/2000/svg">
<rect x="0.5" y="0.5" width="79" height="79" rx="7.5" fill="url(#paint0_linear_24_965)"/>
<path d="M55.709 29.8837H45.385C45.385 29.8837 44.9236 30.1261 44.832 30.2618C44.7403 30.3976 44.6476 30.64 44.6476 30.64V33.4764C44.6476 33.4764 44.4463 33.9248 44.2789 34.0437C44.1465 34.1377 43.9102 34.2328 43.9102 34.2328H41.1449C41.1449 34.2328 40.8855 34.2456 40.7762 34.4218C40.6539 34.6189 40.5918 34.9891 40.5918 34.9891L40.7762 45.5782C40.7762 45.5782 40.9366 45.9865 41.1449 46.1455C41.383 46.3273 41.8823 46.3346 41.8823 46.3346H50.547L55.8933 48.6037C55.8933 48.6037 56.5669 48.692 56.8151 48.4146C57.0158 48.1902 56.9995 47.6582 56.9995 47.6582L56.4464 46.3346V30.8291L56.262 30.2618L55.709 29.8837Z" fill="#DF6913"/>
<rect x="24" y="14" width="16.592" height="15.8836" rx="2" fill="#49A5EB"/>
<path d="M25.2907 34.2327C25.8918 33.6836 26.3706 33.5483 27.1343 33.2872C27.8979 33.0262 28.5809 32.9091 29.1622 32.9091H38.933V37.4472H29.1622V60.8945H51.8379V51.2509H56.6312V63.1636C56.6312 63.1636 55.84 64.3186 55.1563 64.8654C54.5718 65.333 53.4971 65.8109 53.4971 65.8109L27.3186 66C27.3186 66 25.9143 65.6766 25.2907 65.0545C24.7593 64.5244 24.3689 63.3527 24.3689 63.3527L24.1846 35.9345C24.1846 35.9345 24.7092 34.7639 25.2907 34.2327Z" fill="#49A5EB"/>
<rect x="0.5" y="0.5" width="79" height="79" rx="7.5" stroke="#CCD7EF"/>
<defs>
<linearGradient id="paint0_linear_24_965" x1="0" y1="0" x2="76" y2="83.5" gradientUnits="userSpaceOnUse">
<stop stop-color="#F3FAFF"/>
<stop offset="1" stop-color="#FFFBF8"/>
</linearGradient>
</defs>
</svg>
