<svg width="33" height="33" viewBox="0 0 33 33" fill="none" xmlns="http://www.w3.org/2000/svg">
<rect x="0.5" y="0.301392" width="32" height="32" rx="4" fill="white" fill-opacity="0.05"/>
<path d="M23.22 8.30136H9.87C9.69793 8.2933 9.52595 8.31926 9.36392 8.37774C9.20189 8.43623 9.05299 8.5261 8.92573 8.64221C8.79848 8.75831 8.69537 8.89838 8.62232 9.05438C8.54927 9.21039 8.5077 9.37927 8.5 9.55136V22.9314C8.51008 23.2915 8.65766 23.6342 8.91243 23.8889C9.1672 24.1437 9.50984 24.2913 9.87 24.3014H23.22C23.5701 24.2858 23.9002 24.1336 24.1395 23.8775C24.3788 23.6214 24.5082 23.2818 24.5 22.9314V9.55136C24.5029 9.38387 24.4715 9.21755 24.4078 9.06261C24.3441 8.90768 24.2494 8.76739 24.1295 8.65035C24.0097 8.5333 23.8672 8.44198 23.7108 8.38197C23.5544 8.32196 23.3874 8.29453 23.22 8.30136ZM13.5 21.6414H11.17V14.5114H13.5V21.6414ZM12.39 13.4314C12.2274 13.437 12.0654 13.409 11.9142 13.3491C11.7629 13.2891 11.6257 13.1986 11.5111 13.0831C11.3966 12.9675 11.3071 12.8296 11.2484 12.6779C11.1897 12.5261 11.163 12.3639 11.17 12.2014C11.1628 12.0371 11.19 11.8731 11.2499 11.7199C11.3099 11.5668 11.4011 11.4278 11.5179 11.312C11.6346 11.1962 11.7743 11.1061 11.9279 11.0474C12.0816 10.9887 12.2458 10.9628 12.41 10.9714C12.5726 10.9657 12.7346 10.9937 12.8858 11.0537C13.0371 11.1136 13.1743 11.2042 13.2889 11.3197C13.4034 11.4352 13.4929 11.5731 13.5516 11.7249C13.6103 11.8766 13.637 12.0388 13.63 12.2014C13.6372 12.3657 13.61 12.5296 13.55 12.6828C13.4901 12.8359 13.3989 12.9749 13.2821 13.0907C13.1654 13.2065 13.0257 13.2966 12.8721 13.3553C12.7184 13.414 12.5542 13.4399 12.39 13.4314ZM21.84 21.6414H19.5V17.7414C19.5 16.8114 19.17 16.1714 18.34 16.1714C18.0822 16.1736 17.8313 16.2555 17.6219 16.4059C17.4124 16.5563 17.2546 16.7678 17.17 17.0114C17.105 17.194 17.0778 17.3879 17.09 17.5814V21.6414H14.79V14.5114H17.09V15.5114C17.2945 15.1357 17.5988 14.8239 17.9694 14.6103C18.34 14.3968 18.7624 14.2899 19.19 14.3014C20.7 14.3014 21.84 15.3014 21.84 17.4314V21.6414Z" fill="white"/>
<rect x="1" y="0.801392" width="31" height="31" rx="3.5" stroke="white" stroke-opacity="0.05"/>
</svg>
