<svg width="33" height="33" viewBox="0 0 33 33" fill="none" xmlns="http://www.w3.org/2000/svg">
<rect x="0.5" y="0.301392" width="32" height="32" rx="4" fill="white" fill-opacity="0.05"/>
<path d="M26.043 10.7994C26.5 12.5814 26.5 16.3014 26.5 16.3014C26.5 16.3014 26.5 20.0214 26.043 21.8034C25.789 22.7884 25.046 23.5634 24.105 23.8254C22.396 24.3014 16.5 24.3014 16.5 24.3014C16.5 24.3014 10.607 24.3014 8.895 23.8254C7.95 23.5594 7.208 22.7854 6.957 21.8034C6.5 20.0214 6.5 16.3014 6.5 16.3014C6.5 16.3014 6.5 12.5814 6.957 10.7994C7.211 9.81439 7.954 9.03939 8.895 8.77739C10.607 8.30139 16.5 8.30139 16.5 8.30139C16.5 8.30139 22.396 8.30139 24.105 8.77739C25.05 9.04339 25.792 9.81739 26.043 10.7994ZM14.5 19.8014L20.5 16.3014L14.5 12.8014V19.8014Z" fill="white"/>
<rect x="1" y="0.801392" width="31" height="31" rx="3.5" stroke="white" stroke-opacity="0.05"/>
</svg>
